<?xml version="1.0" encoding="UTF-8"?>
<svg id="Layer_2" data-name="Layer 2" xmlns="http://www.w3.org/2000/svg" viewBox="0 0 61 41">
  <defs>
    <style>
      .cls-1 {
        fill: #3e3f43;
        stroke-width: 0px;
      }
    </style>
  </defs>
  <g id="_阴天" data-name="阴天">
    <g id="_椭圆_5" data-name="椭圆 5">
      <path class="cls-1" d="M20,0C13.43,0,8.02,4.87,7.14,11.19,3.06,12.05,0,15.67,0,20,0,24.97,4.03,29,9,29c.43,0,.84-.04,1.26-.1.17-.7.42-1.37.74-2v-.9h-2c-3.31,0-6-2.69-6-6s2.69-6,6-6c.36,0,.72.04,1.06.1-.04-.36-.06-.73-.06-1.1,0-5.52,4.48-10,10-10,3.45,0,6.48,1.74,8.28,4.4.94-.4,1.91-.72,2.93-.95C28.95,2.59,24.78,0,20,0Z"/>
    </g>
    <g id="_椭圆_5_拷贝" data-name="椭圆 5 拷贝">
      <path class="cls-1" d="M8.4,18.77c.1.19.12.19,0,0h0ZM8.4,18.77s-.05-.1-.09-.16c-.03-.04-.06-.07-.09-.11.08.12.14.21.18.27ZM10.71,16.82s0,0,0,0l.04-.03c-.48-1.17-.75-2.45-.75-3.79h-3c0,2.74.92,4.84,1.32,5.6.48.59,1.34.73,1.99.3.69-.46.87-1.39.41-2.08Z"/>
    </g>
    <g id="_椭圆_3_拷贝" data-name="椭圆 3 拷贝">
      <path class="cls-1" d="M52.91,21.19c-.91-9.09-8.58-16.19-17.91-16.19s-17,7.1-17.91,16.19c-4.61.89-8.09,4.94-8.09,9.81,0,5.52,4.48,10,10,10,2.59,0,4.94-.99,6.71-2.6,2.71,1.64,5.88,2.6,9.29,2.6s6.57-.96,9.29-2.6c1.78,1.61,4.13,2.6,6.71,2.6,5.52,0,10-4.48,10-10,0-4.87-3.48-8.92-8.09-9.81ZM51,38c-2.19,0-4.14-1-5.43-2.58,0,0,0,.01-.01.02-.27-.27-.65-.44-1.06-.44s-.8.18-1.08.46c0-.02-.01-.03-.02-.05-2.4,1.63-5.29,2.59-8.41,2.59s-6.08-.98-8.49-2.65c0,.01-.01.03-.02.04-.26-.24-.6-.39-.99-.39-.45,0-.85.21-1.12.53,0,0-.01-.02-.02-.03-1.28,1.53-3.21,2.49-5.36,2.49-3.87,0-7-3.13-7-7s3.13-7,7-7c0-.03,0-.07-.01-.1.45-.16.78-.51.92-.96.03.07.12-1.22.1-.41.25-8.07,6.86-14.53,14.99-14.53,7.51,0,13.71,5.52,14.81,12.72.05.35.1.7.13,1.06.03.41.06.81.06,1.22,0,.37-.03.73-.05,1.09,0,0,0,0,0,0-.1,1.3-.37,2.55-.77,3.74-.11.21-.18.43-.18.68,0,.83.67,1.5,1.5,1.5.51,0,.93-.27,1.2-.65l.1.05c.61-1.61,1-3.33,1.13-5.13,2.92.84,5.06,3.53,5.06,6.72,0,3.87-3.13,7-7,7Z"/>
    </g>
  </g>
</svg>