<?xml version="1.0" encoding="UTF-8"?>
<svg id="Layer_2" data-name="Layer 2" xmlns="http://www.w3.org/2000/svg" viewBox="0 0 52 47.85">
  <defs>
    <style>
      .cls-1 {
        fill: #3e3f43;
        stroke-width: 0px;
      }
    </style>
  </defs>
  <g id="_小雨" data-name="小雨">
    <g id="_椭圆_3_拷贝" data-name="椭圆 3 拷贝">
      <path class="cls-1" d="M43.91,16.19C43,7.1,35.33,0,26,0S9,7.1,8.09,16.19C3.48,17.08,0,21.13,0,26,0,31.52,4.48,36,10,36c.63,0,1.25-.06,1.85-.17v-.05c.65-.16,1.15-.72,1.15-1.43,0-.6-.35-1.1-.86-1.34,0,0-2.21,0-2.14,0-3.87,0-7-3.13-7-7s3.13-7,7-7c0-.03,0-.07-.01-.1.45-.16.78-.51.92-.96.03.07.12-1.22.1-.41.25-8.07,6.86-14.53,14.99-14.53,7.51,0,13.71,5.52,14.81,12.72.05.35.1.7.13,1.06.03.4.06.81.06,1.22,0,.37-.03.73-.05,1.09,0,0,0,0,0,0-.1,1.3-.37,2.55-.77,3.74-.11.21-.18.43-.18.68,0,.83.67,1.5,1.5,1.5.51,0,.93-.27,1.2-.65l.1.05c.61-1.61,1-3.33,1.13-5.13,2.92.84,5.06,3.53,5.06,6.72,0,3.87-3.13,7-7,7-2.19,0-4.14-1.01-5.43-2.58,0,0,0,.01-.01.02-.27-.27-.65-.44-1.06-.44s-.8.18-1.08.46c0-.02-.01-.03-.02-.05-2.27,1.54-4.98,2.47-7.91,2.57v.02c-.83,0-1.5.67-1.5,1.5s.67,1.5,1.5,1.5c.04,0,.08-.02.13-.03,3.16-.11,6.12-1.04,8.66-2.58,1.78,1.61,4.13,2.6,6.71,2.6,5.52,0,10-4.48,10-10,0-4.87-3.48-8.92-8.09-9.81Z"/>
    </g>
    <g id="_椭圆_4" data-name="椭圆 4">
      <path class="cls-1" d="M19,33c-1.1,0-2,.9-2,2s.9,2,2,2,2-.9,2-2-.9-2-2-2Z"/>
    </g>
    <g id="_圆角矩形_2_拷贝" data-name="圆角矩形 2 拷贝">
      <path class="cls-1" d="M17.87,39.24c-.78-.28-1.64.12-1.92.9l-1.71,5.7c-.28.78.12,1.64.9,1.92s1.64-.12,1.92-.9l1.71-5.7c.28-.78-.12-1.64-.9-1.92Z"/>
    </g>
    <g id="_圆角矩形_2_拷贝_5" data-name="圆角矩形 2 拷贝 5">
      <path class="cls-1" d="M29.87,39.24c-.78-.28-1.64.12-1.92.9l-1.71,5.7c-.28.78.12,1.64.9,1.92.78.28,1.64-.12,1.92-.9l1.71-5.7c.28-.78-.12-1.64-.9-1.92Z"/>
    </g>
  </g>
</svg>