<?xml version="1.0" encoding="UTF-8"?>
<svg id="Layer_2" data-name="Layer 2" xmlns="http://www.w3.org/2000/svg" viewBox="0 0 52 48.61">
  <defs>
    <style>
      .cls-1 {
        fill: #3e3f43;
        stroke-width: 0px;
      }
    </style>
  </defs>
  <g id="_中雨" data-name="中雨">
    <g id="_椭圆_3_拷贝" data-name="椭圆 3 拷贝">
      <path class="cls-1" d="M43.91,16.19C43,7.1,35.33,0,26,0S9,7.1,8.09,16.19C3.48,17.08,0,21.13,0,26c0,5.52,4.48,10,10,10,.63,0,1.25-.06,1.85-.17v-.05c.65-.16,1.15-.72,1.15-1.43,0-.6-.35-1.1-.86-1.34,0,0-2.21,0-2.14,0-3.87,0-7-3.13-7-7s3.13-7,7-7c0-.03,0-.07-.01-.1.45-.16.78-.51.92-.96.03.07.12-1.22.1-.41.25-8.07,6.86-14.53,14.99-14.53,7.51,0,13.71,5.52,14.81,12.72.05.35.1.7.13,1.06.03.41.06.81.06,1.22,0,.37-.03.73-.05,1.09,0,0,0,0,0,0-.1,1.3-.37,2.55-.77,3.74-.11.21-.18.43-.18.68,0,.83.67,1.5,1.5,1.5.51,0,.93-.27,1.2-.65l.1.05c.61-1.61,1-3.33,1.13-5.13,2.92.84,5.06,3.53,5.06,6.72,0,3.87-3.13,7-7,7-2.19,0-4.14-1-5.43-2.58,0,0,0,.01-.01.02-.27-.27-.65-.44-1.06-.44s-.8.18-1.08.46c0-.02-.01-.03-.02-.05-2.34,1.59-5.16,2.54-8.2,2.58.57-.05-2.24-.34-2.24,1.51,0,1.96,3.54,1.5,2.03,1.5,3.4,0,6.57-.96,9.29-2.6,1.78,1.61,4.13,2.6,6.71,2.6,5.52,0,10-4.48,10-10,0-4.87-3.48-8.92-8.09-9.81Z"/>
    </g>
    <g id="_圆角矩形_1" data-name="圆角矩形 1">
      <path class="cls-1" d="M19.24,33.48c-.78-.28-1.64.12-1.92.9l-4.45,12.22c-.28.78.12,1.64.9,1.92.78.28,1.64-.12,1.92-.9l4.45-12.22c.28-.78-.12-1.64-.9-1.92Z"/>
    </g>
    <g id="_圆角矩形_2" data-name="圆角矩形 2">
      <path class="cls-1" d="M26.87,39.24c-.78-.28-1.64.12-1.92.9l-1.71,5.7c-.28.78.12,1.64.9,1.92.78.28,1.64-.12,1.92-.9l1.71-5.7c.28-.78-.12-1.64-.9-1.92Z"/>
    </g>
    <g id="_圆角矩形_2_拷贝_2" data-name="圆角矩形 2 拷贝 2">
      <path class="cls-1" d="M36.87,39.24c-.78-.28-1.64.12-1.92.9l-1.71,5.7c-.28.78.12,1.64.9,1.92s1.64-.12,1.92-.9l1.71-5.7c.28-.78-.12-1.64-.9-1.92Z"/>
    </g>
  </g>
</svg>