<?xml version="1.0" encoding="UTF-8"?>
<svg id="Layer_2" data-name="Layer 2" xmlns="http://www.w3.org/2000/svg" viewBox="0 0 52 46">
  <defs>
    <style>
      .cls-1 {
        fill: #3e3f43;
        stroke-width: 0px;
      }
    </style>
  </defs>
  <g id="_中雪" data-name="中雪">
    <g id="_椭圆_3_拷贝_3" data-name="椭圆 3 拷贝 3">
      <path class="cls-1" d="M43.91,16.19C43,7.1,35.33,0,26,0S9,7.1,8.09,16.19C3.48,17.08,0,21.13,0,26,0,31.35,4.21,35.71,9.5,35.97c0,.01,0,.02,0,.03h3c.83,0,1.5-.67,1.5-1.5s-.67-1.5-1.5-1.5h-2.5s0,0,0,0c-3.87,0-7-3.13-7-7s3.13-7,7-7c0-.03,0-.07-.01-.1.45-.16.78-.51.92-.96.03.07.12-1.22.1-.41.25-8.07,6.87-14.53,14.99-14.53,7.51,0,13.71,5.52,14.81,12.72.05.35.1.7.13,1.06.03.41.06.81.06,1.22,0,.37-.03.73-.05,1.09,0,0,0,0,0,0-.1,1.3-.37,2.55-.77,3.74-.11.21-.18.43-.18.68,0,.83.67,1.5,1.5,1.5.51,0,.93-.27,1.2-.65l.1.05c.61-1.61,1-3.33,1.13-5.13,2.92.84,5.06,3.53,5.06,6.72,0,3.87-3.13,7-7,7h0s-3.5,0-3.5,0c-.83,0-1.5.67-1.5,1.5s.67,1.5,1.5,1.5h4c.06,0,.11-.03.17-.03,5.21-.35,9.33-4.67,9.33-9.97,0-4.87-3.48-8.92-8.09-9.81Z"/>
    </g>
    <g id="_圆角矩形_4" data-name="圆角矩形 4">
      <path class="cls-1" d="M32.86,33.25c-.41-.72-1.33-.96-2.05-.55l-3.81,2.2v-4.4c0-.83-.67-1.5-1.5-1.5s-1.5.67-1.5,1.5v4.4l-3.81-2.2c-.72-.41-1.63-.17-2.05.55-.41.72-.17,1.63.55,2.05l3.81,2.2-3.81,2.2c-.72.41-.96,1.33-.55,2.05.41.72,1.33.96,2.05.55l3.81-2.2v4.4c0,.83.67,1.5,1.5,1.5s1.5-.67,1.5-1.5v-4.4l3.81,2.2c.72.41,1.63.17,2.05-.55.41-.72.17-1.63-.55-2.05l-3.81-2.2,3.81-2.2c.72-.41.96-1.33.55-2.05ZM40,40c-1.1,0-2,.9-2,2s.9,2,2,2,2-.9,2-2-.9-2-2-2Z"/>
    </g>
  </g>
</svg>