<?xml version="1.0" encoding="UTF-8"?>
<svg id="Layer_2" data-name="Layer 2" xmlns="http://www.w3.org/2000/svg" viewBox="0 0 124.42 56.46">
  <defs>
    <style>
      .cls-1 {
        fill: #3e3f43;
        stroke-width: 0px;
      }

      .cls-2 {
        fill: none;
        stroke: #3e3f43;
        stroke-linecap: round;
        stroke-miterlimit: 100;
        stroke-width: 3px;
      }
    </style>
  </defs>
  <g id="_有雾" data-name="有雾">
    <g id="_椭圆_3_拷贝" data-name="椭圆 3 拷贝">
      <path class="cls-1" d="M81.77,26.31c0-.1.02-.2.02-.31,0-4.87-3.48-8.92-8.09-9.81-.91-9.09-8.58-16.19-17.91-16.19s-17,7.1-17.91,16.19c-4.61.89-8.09,4.94-8.09,9.81,0,.11.01.21.02.31,0,.06-.02.13-.02.2,0,.83.67,1.5,1.5,1.5s1.5-.67,1.5-1.5c0-.09-.01-.17-.03-.26.01-.08.03-.16.03-.24,0-3.87,3.13-7,7-7,0-.03,0-.07-.01-.1.45-.16.78-.51.92-.96.03.07.12-1.22.1-.41.25-8.07,6.86-14.53,14.99-14.53,7.51,0,13.71,5.52,14.81,12.72.05.35.1.7.13,1.06.03.41.06.81.06,1.22,0,.37-.03.73-.05,1.09,0,0,0,0,0,0-.1,1.3-.37,2.55-.77,3.74-.11.21-.18.43-.18.68,0,.83.67,1.5,1.5,1.5.51,0,.93-.27,1.2-.65l.1.05c.61-1.61,1-3.33,1.13-5.12,2.92.84,5.06,3.53,5.06,6.72,0,.08.02.14.04.21-.15.75.29,1.5,1.03,1.72.78.23,1.59-.19,1.85-.95.01-.02.03-.03.04-.05,0-.04,0-.08,0-.12.04-.17.05-.34.03-.51Z"/>
    </g>
    <g id="_形状_1_拷贝" data-name="形状 1 拷贝">
      <path class="cls-2" d="M30.79,40c15.23,6.4,22.29-1.89,34.38-2.68l-34.38,2.68Z"/>
    </g>
    <g id="_形状_1_拷贝_2" data-name="形状 1 拷贝 2">
      <path class="cls-2" d="M74.57,38.26l5.22,1.74c-1.85-.75-3.58-1.32-5.22-1.74Z"/>
    </g>
    <g id="_形状_1_拷贝_3" data-name="形状 1 拷贝 3">
      <path class="cls-2" d="M30.79,32c2.14.9,4.12,1.51,5.97,1.89l-5.97-1.89Z"/>
    </g>
    <g id="_形状_1" data-name="形状 1">
      <path class="cls-2" d="M45.76,34.09l34.03-2.09c-16.14-6.54-23.74.46-34.03,2.09Z"/>
    </g>
  </g>
</svg>