<?xml version="1.0" encoding="UTF-8"?>
<svg id="Layer_2" data-name="Layer 2" xmlns="http://www.w3.org/2000/svg" viewBox="0 0 66 45.5">
  <defs>
    <style>
      .cls-1 {
        fill: #3e3f43;
        stroke-width: 0px;
      }

      .cls-2 {
        fill: none;
        stroke: #3e3f43;
        stroke-linecap: round;
        stroke-linejoin: round;
        stroke-width: 3px;
      }
    </style>
  </defs>
  <g id="_扬沙" data-name="扬沙">
    <g id="_椭圆_7" data-name="椭圆 7">
      <path class="cls-1" d="M33.5,3c5.57,0,10.99.84,14.85,2.3,3.86,1.46,4.65,2.9,4.65,3.2s-.79,1.75-4.65,3.2c-3.86,1.46-9.27,2.3-14.85,2.3s-10.99-.84-14.85-2.3c-3.86-1.46-4.65-2.9-4.65-3.2s.79-1.75,4.65-3.2c3.86-1.46,9.27-2.3,14.85-2.3M33.5,0C21.07,0,11,3.81,11,8.5s10.07,8.5,22.5,8.5,22.5-3.81,22.5-8.5S45.93,0,33.5,0h0Z"/>
    </g>
    <g id="_形状_5" data-name="形状 5">
      <path class="cls-2" d="M15,17s1.12,6,18,6c16,0,18-6,18-6H15Z"/>
    </g>
    <g id="_形状_6" data-name="形状 6">
      <path class="cls-2" d="M19,25s2.13,4,14,4,14-4,14-4h-28Z"/>
    </g>
    <g id="_形状_7" data-name="形状 7">
      <path class="cls-2" d="M24,34s2,3,9,3,9-3,9-3h-18Z"/>
    </g>
    <g id="_形状_8" data-name="形状 8">
      <path class="cls-2" d="M32,43s1.06,1,4,1,4-2,4-2l-8,1Z"/>
    </g>
    <g id="_椭圆_8" data-name="椭圆 8">
      <path class="cls-1" d="M6,12c-1.1,0-2,.9-2,2s.9,2,2,2,2-.9,2-2-.9-2-2-2ZM2,20c-1.1,0-2,.9-2,2s.9,2,2,2,2-.9,2-2-.9-2-2-2ZM11,26c-1.1,0-2,.9-2,2s.9,2,2,2,2-.9,2-2-.9-2-2-2ZM64,22c-1.1,0-2,.9-2,2s.9,2,2,2,2-.9,2-2-.9-2-2-2ZM63,15c0-1.1-.9-2-2-2s-2,.9-2,2,.9,2,2,2,2-.9,2-2ZM55,27c-1.1,0-2,.9-2,2s.9,2,2,2,2-.9,2-2-.9-2-2-2Z"/>
    </g>
  </g>
</svg>