<?xml version="1.0" encoding="UTF-8"?>
<svg id="Layer_2" data-name="Layer 2" xmlns="http://www.w3.org/2000/svg" viewBox="0 0 65 49">
  <defs>
    <style>
      .cls-1 {
        fill: #3e3f43;
        stroke-width: 0px;
      }
    </style>
  </defs>
  <g id="_多云" data-name="多云">
    <g id="_椭圆_3_拷贝" data-name="椭圆 3 拷贝">
      <path class="cls-1" d="M56.91,29.19c-.91-9.09-8.58-16.19-17.91-16.19s-17,7.1-17.91,16.19c-4.61.89-8.09,4.94-8.09,9.81,0,5.52,4.48,10,10,10,2.59,0,4.94-.99,6.71-2.6,2.71,1.64,5.88,2.6,9.29,2.6s6.57-.96,9.29-2.6c1.78,1.61,4.13,2.6,6.71,2.6,5.52,0,10-4.48,10-10,0-4.87-3.48-8.92-8.09-9.81ZM55,46c-2.19,0-4.14-1-5.43-2.58,0,0,0,.01-.01.02-.27-.27-.65-.44-1.06-.44s-.8.18-1.08.46c0-.02-.01-.03-.02-.05-2.4,1.63-5.29,2.59-8.41,2.59s-6.08-.98-8.49-2.65c0,.01-.01.03-.02.04-.26-.24-.6-.39-.99-.39-.45,0-.85.21-1.12.53,0,0-.01-.02-.02-.03-1.28,1.53-3.21,2.49-5.36,2.49-3.87,0-7-3.13-7-7s3.13-7,7-7c0-.03,0-.07-.01-.1.45-.16.78-.51.92-.96.03.07.12-1.22.1-.41.25-8.07,6.86-14.53,14.99-14.53,7.51,0,13.71,5.52,14.81,12.72.05.35.1.7.13,1.06.03.41.06.81.06,1.22,0,.37-.03.73-.05,1.09,0,0,0,0,0,0-.1,1.3-.37,2.55-.77,3.74-.11.21-.18.43-.18.68,0,.83.67,1.5,1.5,1.5.51,0,.93-.27,1.2-.65l.1.05c.61-1.61,1-3.33,1.13-5.13,2.92.84,5.06,3.53,5.06,6.72,0,3.87-3.13,7-7,7Z"/>
    </g>
    <g id="_椭圆_2" data-name="椭圆 2">
      <path class="cls-1" d="M22,7C26.53,7,22,0,22,0,22,0,17.47,7,22,7ZM22,10c-6.63,0-12,5.37-12,12,0,4.7,2.71,8.75,6.64,10.72l.36-.72,3.05-1.22c-4.03-.89-7.05-4.48-7.05-8.78,0-4.97,4.03-9,9-9,3.32,0,6.21,1.8,7.77,4.47,1.12-.72,2.13-1.11,2.71-1.31-2.05-3.67-5.97-6.16-10.48-6.16ZM32.61,11.39c3.2,3.2,4.95-4.95,4.95-4.95,0,0-8.15,1.75-4.95,4.95ZM11.39,11.39c3.2-3.2-4.95-4.95-4.95-4.95,0,0,1.75,8.15,4.95,4.95ZM6.44,37.56s8.15-1.75,4.95-4.95c-3.2-3.2-4.95,4.95-4.95,4.95ZM0,22s7,4.53,7,0-7,0-7,0Z"/>
    </g>
  </g>
</svg>