<?xml version="1.0" encoding="UTF-8"?>
<svg id="Layer_2" data-name="Layer 2" xmlns="http://www.w3.org/2000/svg" viewBox="0 0 46 46">
  <defs>
    <style>
      .cls-1 {
        fill: #3e3f43;
        stroke-width: 0px;
      }
    </style>
  </defs>
  <g id="_晴天" data-name="晴天">
    <g id="_椭圆_1" data-name="椭圆 1">
      <path class="cls-1" d="M23,9c4.56,0,0-9,0-9,0,0-4.56,9,0,9ZM39.26,6.74s-9.59,3.14-6.36,6.36c3.23,3.23,6.36-6.36,6.36-6.36ZM9,23C9,18.51,0,23,0,23,0,23,9,27.49,9,23ZM37,23c0,4.49,9,0,9,0,0,0-9-4.49-9,0ZM23,12c-6.08,0-11,4.92-11,11s4.92,11,11,11,11-4.92,11-11-4.92-11-11-11ZM23,31c-4.42,0-8-3.58-8-8s3.58-8,8-8,8,3.58,8,8-3.58,8-8,8ZM32.9,32.9c-3.18,3.18,6.36,6.36,6.36,6.36,0,0-3.19-9.54-6.36-6.36ZM23,37c-4.56,0,0,9,0,9,0,0,4.56-9,0-9ZM6.74,39.26s9.59-3.14,6.36-6.36-6.36,6.36-6.36,6.36ZM13.1,13.1c3.18-3.18-6.36-6.36-6.36-6.36,0,0,3.19,9.54,6.36,6.36Z"/>
    </g>
  </g>
</svg>