<?xml version="1.0" encoding="UTF-8"?>
<svg id="Layer_2" data-name="Layer 2" xmlns="http://www.w3.org/2000/svg" viewBox="0 0 40.76 45">
  <defs>
    <style>
      .cls-1 {
        fill: #3e3f43;
        stroke-width: 0px;
      }
    </style>
  </defs>
  <g id="_大雪" data-name="大雪">
    <g id="_圆角矩形_3" data-name="圆角矩形 3">
      <path class="cls-1" d="M38.85,25.13l-7.44,1.99-8.03-4.64,8.05-4.64,7.44,1.99c.8.21,1.62-.26,1.84-1.06.21-.8-.26-1.62-1.06-1.84l-4.55-1.22,4.23-2.44c.72-.41.96-1.33.55-2.05-.41-.72-1.33-.96-2.05-.55l-4.23,2.44,1.22-4.55c.21-.8-.26-1.62-1.06-1.84-.8-.21-1.62.26-1.84,1.06l-1.99,7.44-8.04,4.64v-9.27l5.45-5.45c.59-.59.59-1.54,0-2.12-.59-.59-1.54-.59-2.12,0l-3.33,3.33V1.5c0-.83-.67-1.5-1.5-1.5s-1.5.67-1.5,1.5v4.88l-3.33-3.33c-.59-.59-1.54-.59-2.12,0-.59.59-.59,1.54,0,2.12l5.45,5.45v9.27l-8.05-4.64-1.99-7.44c-.21-.8-1.04-1.27-1.84-1.06-.8.21-1.28,1.04-1.06,1.84l1.22,4.55-4.23-2.44c-.72-.41-1.63-.17-2.05.55s-.17,1.63.55,2.05l4.23,2.44-4.55,1.22c-.8.21-1.28,1.04-1.06,1.84.21.8,1.04,1.28,1.84,1.06l7.44-1.99,8.05,4.64-8.03,4.64-7.44-1.99c-.8-.21-1.62.26-1.84,1.06-.21.8.26,1.62,1.06,1.84l4.55,1.22-4.23,2.44c-.72.41-.96,1.33-.55,2.05.41.72,1.33.96,2.05.55l4.23-2.44-1.22,4.55c-.21.8.26,1.62,1.06,1.84.8.21,1.62-.26,1.84-1.06l1.99-7.44,8.03-4.64v9.29l-5.45,5.45c-.59.59-.59,1.54,0,2.12.59.59,1.54.59,2.12,0l3.33-3.33v4.88c0,.83.67,1.5,1.5,1.5s1.5-.67,1.5-1.5v-4.88l3.33,3.33c.59.59,1.54.59,2.12,0,.59-.59.59-1.54,0-2.12l-5.45-5.45v-9.29l8.03,4.64,1.99,7.44c.21.8,1.04,1.28,1.84,1.06.8-.21,1.28-1.04,1.06-1.84l-1.22-4.55,4.23,2.44c.72.41,1.63.17,2.05-.55s.17-1.63-.55-2.05l-4.23-2.44,4.55-1.22c.8-.21,1.28-1.04,1.06-1.84-.21-.8-1.04-1.28-1.84-1.06Z"/>
    </g>
  </g>
</svg>